# xmcd
#
# Track frame offsets:
#	150
#	9394
#	17629
#	29069
#	38444
#	48882
#	59619
#	66732
#	76330
#	87453
#	97683
#	106544
#	120454
#	132281
#	139397
#	151998
#	162015
#	168574
#	177613
#	186604
#	195618
#	205825
#	213953
#	223879
#	231249
#
# Disc length: 3321 seconds
#
# Revision: 0
# Processed by: cddbd v1.5.2PL0 Copyright (c) Steve Scherf et al.
# Submitted via: EZCDAudioConverter 2.1.7.1
#
DISCID=630cf719
DTITLE=V/A - Pulp and Pop Culture Box 2/4
DYEAR=1900
DGENRE=
TTITLE0=Jimmie Hombs with The Invictas and The Hollywood Rebels - Voodoo Dolly
TTITLE1=Glenda and Glen - Voodoo Doll
TTITLE2=Bill James and The Hex-O-Tones - Voo Doo Queen And The Medicine Man
TTITLE3=Smiley Smith - Voodoo Woman
TTITLE4=Art Van Damme Quintet - Voodoo Doll
TTITLE5=Dixie Dee/Ted Russell and His Orchestra - Voodoo Mama
TTITLE6=Voodoo Island
TTITLE7=Jericho Jones - Black Magic
TTITLE8=Red Callendar Sextette - Voodoo
TTITLE9=Curtis Knight - Voodoo Woman
TTITLE10=Jan Davis - Watusi Zombi
TTITLE11=The Islanders - Voodoo Drums
TTITLE12=Johnny Perry - The Voo-Doo Man
TTITLE13=Voodoo Woman
TTITLE14=Mercy Baby - Love's Voodoo
TTITLE15=Akim - Voodoo Drums
TTITLE16=Voodoo Village
TTITLE17=Don Sargent and The Buddies - Voodoo Kiss
TTITLE18=Mighty Joe Young - Voo Doo Dust
TTITLE19=White Zombie
TTITLE20=Billy Taylor and The Teardrops - Wombie Zombie
TTITLE21=Charles Sheffield - It's Your Voodoo Working
TTITLE22=Joe Gaines with Al White and The Hi Liters - Voo Doo Lou
TTITLE23=The Volcanos - Oh Oh Mojo
TTITLE24=Cyril Diaz and His Orchestra - Voodoo
EXTD=
EXTT0=
EXTT1=
EXTT2=
EXTT3=
EXTT4=
EXTT5=
EXTT6=
EXTT7=
EXTT8=
EXTT9=
EXTT10=
EXTT11=
EXTT12=
EXTT13=
EXTT14=
EXTT15=
EXTT16=
EXTT17=
EXTT18=
EXTT19=
EXTT20=
EXTT21=
EXTT22=
EXTT23=
EXTT24=
PLAYORDER=
